# xmcd
# Copyright (C) 1995-1998 Ti Kan
#
# Track frame offsets:
#       150
#       13541
#       26757
#       40472
#       52379
#
# Disc length: 891 seconds
#
# Revision: 0
# Processed by: cddbd v1.5.1PL2 Copyright (c) Steve Scherf et al.
# Submitted via: CD-Transfer v1.0
#
DISCID=41037905
DTITLE=Die Bergcasanovas - 
DYEAR=06
DGENRE=
TTITLE0=Im Herzen Drin Is Sommer Blieb`n
TTITLE1=Wär`s A See
TTITLE2=Viel, Viel Schöner
TTITLE3=Kumm Über`n Berg
TTITLE4=Wish You Were Here
EXTD=
EXTT0=
EXTT1=
EXTT2=
EXTT3=
EXTT4=
PLAYORDER=
